Coordinates
version=1
nRows=20
nColumns=38
inDegrees=no

Units are S.I. units (second, meters, Newtons, ...)
If the header above contains a line with 'inDegrees', this indicates whether rotational values are in degrees (yes) or radians (no).

endheader
time	pelvis_tilt	pelvis_list	pelvis_rotation	pelvis_tx	pelvis_ty	pelvis_tz	hip_flexion_r	hip_adduction_r	hip_rotation_r	knee_angle_r	ankle_angle_r	subtalar_angle_r	mtp_angle_r	hip_flexion_l	hip_adduction_l	hip_rotation_l	knee_angle_l	ankle_angle_l	subtalar_angle_l	mtp_angle_l	lumbar_extension	lumbar_bending	lumbar_rotation	arm_flex_r	arm_add_r	arm_rot_r	elbow_flex_r	pro_sup_r	wrist_flex_r	wrist_dev_r	arm_flex_l	arm_add_l	arm_rot_l	elbow_flex_l	pro_sup_l	wrist_flex_l	wrist_dev_l
85	-1.08174	1.37202	-0.599858	0.587971	1.93619	0.930335	-0.134764	0.224509	-0.00722696	0.160578	-0.350716	0	0	0.261776	-0.331578	0.153714	0.835492	-0.344197	0	0	-0.379931	-0.122955	0.397537	0.0778381	-0.358602	0.123996	0.821748	1.35181	0	0	0.222717	-0.763434	1.51264	0.492379	1.5708	0	0
85.01	-1.07568	1.37193	-0.60312	0.588644	1.93558	0.93029	-0.135527	0.223811	-0.00717249	0.161961	-0.348501	0	0	0.255306	-0.335272	0.141716	0.826912	-0.339852	0	0	-0.378061	-0.12341	0.39737	0.077132	-0.36023	0.127284	0.823353	1.34616	0	0	0.22638	-0.759523	1.51987	0.49095	1.5708	0	0
85.02	-1.06082	1.37212	-0.612388	0.589605	1.93517	0.93042	-0.137326	0.222052	-0.00971397	0.162868	-0.346424	0	0	0.247301	-0.336641	0.132359	0.816275	-0.334831	0	0	-0.378947	-0.124555	0.394534	0.076808	-0.361606	0.129984	0.825025	1.34131	0	0	0.231223	-0.756447	1.52342	0.49135	1.5708	0	0
85.03	-1.04127	1.373	-0.623373	0.59084	1.93501	0.930672	-0.139003	0.219356	-0.0154742	0.163409	-0.344687	0	0	0.239557	-0.337848	0.120006	0.803732	-0.330284	0	0	-0.381761	-0.126106	0.38836	0.0772601	-0.362577	0.132506	0.826613	1.3373	0	0	0.237468	-0.753517	1.52512	0.492373	1.5708	0	0
85.04	-1.03227	1.37332	-0.626655	0.591928	1.93438	0.930675	-0.140493	0.21801	-0.0188823	0.16327	-0.342997	0	0	0.230344	-0.342046	0.104384	0.790963	-0.323905	0	0	-0.381344	-0.125947	0.385263	0.076105	-0.363461	0.135294	0.827312	1.33464	0	0	0.242078	-0.749623	1.52577	0.49231	1.5708	0	0
85.05	-1.02373	1.3734	-0.62902	0.593136	1.93367	0.930658	-0.142618	0.216834	-0.0227254	0.162113	-0.341461	0	0	0.217913	-0.347046	0.086956	0.772816	-0.31603	0	0	-0.380876	-0.125099	0.381962	0.074671	-0.364287	0.138352	0.827302	1.33312	0	0	0.247117	-0.745677	1.52613	0.492113	1.5708	0	0
85.06	-1.00868	1.37294	-0.637056	0.594509	1.93309	0.930734	-0.146155	0.215156	-0.0282263	0.160696	-0.33971	0	0	0.201204	-0.351842	0.0675414	0.748322	-0.306867	0	0	-0.382513	-0.124267	0.377661	0.0736836	-0.365522	0.14232	0.827544	1.33227	0	0	0.252971	-0.741829	1.52472	0.493172	1.5708	0	0
85.07	-0.994992	1.3722	-0.643168	0.596027	1.93255	0.930686	-0.149464	0.21363	-0.0348756	0.159512	-0.337815	0	0	0.183715	-0.355973	0.0502532	0.722369	-0.297553	0	0	-0.384318	-0.122636	0.372591	0.0727357	-0.366984	0.146867	0.828016	1.33231	0	0	0.258662	-0.737621	1.5202	0.495118	1.5708	0	0
85.08	-0.986232	1.37173	-0.64517	0.597466	1.93195	0.930521	-0.151514	0.212405	-0.0412494	0.159156	-0.336004	0	0	0.165597	-0.361032	0.0292454	0.693871	-0.288504	0	0	-0.384868	-0.120765	0.367951	0.0718255	-0.368104	0.151974	0.827792	1.33314	0	0	0.264063	-0.733259	1.51379	0.497195	1.5708	0	0
85.09	-0.980697	1.37144	-0.643737	0.599057	1.93127	0.930225	-0.152665	0.211333	-0.0484927	0.159307	-0.334046	0	0	0.149865	-0.365769	0.00859988	0.668907	-0.279881	0	0	-0.384679	-0.118245	0.363018	0.0704078	-0.369233	0.15697	0.827659	1.33404	0	0	0.269733	-0.728602	1.50692	0.499419	1.5708	0	0
85.1	-0.97087	1.3725	-0.644366	0.600945	1.93079	0.930056	-0.153279	0.208829	-0.0564836	0.159001	-0.332332	0	0	0.135441	-0.36823	-0.0119261	0.643889	-0.273454	0	0	-0.385738	-0.116996	0.355151	0.0698296	-0.369707	0.161425	0.827155	1.3347	0	0	0.277523	-0.723969	1.502	0.502139	1.5708	0	0
85.11	-0.948129	1.37393	-0.656088	0.603028	1.93049	0.930229	-0.155388	0.204513	-0.06645	0.158968	-0.330519	0	0	0.11882	-0.367897	-0.0327769	0.616123	-0.26821	0	0	-0.39012	-0.117429	0.344388	0.070631	-0.369899	0.167109	0.826699	1.33672	0	0	0.285724	-0.719994	1.49499	0.506236	1.5708	0	0
85.12	-0.920974	1.37541	-0.673015	0.605108	1.93006	0.930502	-0.158753	0.199549	-0.0745654	0.158355	-0.328779	0	0	0.100019	-0.366672	-0.0567482	0.586417	-0.265531	0	0	-0.394327	-0.118649	0.334678	0.0709029	-0.369651	0.172223	0.825392	1.33932	0	0	0.294243	-0.716041	1.48881	0.511335	1.5708	0	0
85.13	-0.883267	1.37719	-0.696555	0.607626	1.92996	0.930972	-0.163185	0.19333	-0.0856797	0.157173	-0.327171	0	0	0.0827358	-0.361139	-0.0723623	0.557092	-0.265428	0	0	-0.40157	-0.120247	0.320836	0.0717303	-0.369147	0.176207	0.824863	1.34195	0	0	0.305802	-0.712381	1.48344	0.517664	1.5708	0	0
85.14	-0.855355	1.38045	-0.709666	0.610267	1.92988	0.931226	-0.164939	0.187366	-0.0950853	0.155837	-0.325505	0	0	0.0707992	-0.35619	-0.0910116	0.532634	-0.266682	0	0	-0.406278	-0.121366	0.306056	0.0721711	-0.368048	0.179489	0.824054	1.34463	0	0	0.317998	-0.708212	1.47773	0.524031	1.5708	0	0
85.15	-0.833079	1.38364	-0.718787	0.612831	1.92945	0.931339	-0.166765	0.182148	-0.102388	0.153933	-0.323454	0	0	0.0570467	-0.351347	-0.11046	0.506141	-0.267863	0	0	-0.408807	-0.121845	0.292868	0.0716327	-0.366766	0.18298	0.823019	1.34834	0	0	0.328953	-0.703677	1.4691	0.530962	1.5708	0	0
85.16	-0.809269	1.38578	-0.72843	0.615645	1.92899	0.931486	-0.170069	0.177624	-0.110787	0.150914	-0.321586	0	0	0.0412003	-0.345544	-0.124563	0.478179	-0.26832	0	0	-0.412129	-0.120819	0.279019	0.0705259	-0.36589	0.186021	0.822948	1.35393	0	0	0.339975	-0.699436	1.45773	0.54007	1.5708	0	0
85.17	-0.794737	1.38876	-0.726925	0.618721	1.9288	0.931474	-0.170803	0.173802	-0.119642	0.148012	-0.320393	0	0	0.0306597	-0.34041	-0.139834	0.454488	-0.268612	0	0	-0.414218	-0.118188	0.263696	0.069053	-0.365263	0.188278	0.823982	1.3598	0	0	0.352646	-0.694391	1.44988	0.549433	1.5708	0	0
85.18	-0.654567	1.37954	-0.857981	0.620353	1.92844	0.93523	-0.20327	0.162101	-0.127306	0.137041	-0.327537	0	0	0.015526	-0.344435	-0.196929	0.492156	-0.279342	0	0	-0.445539	-0.129836	0.252278	0.0730619	-0.361408	0.189596	0.825163	1.37224	0	0	0.368659	-0.695003	1.43262	0.565329	1.5708	0	0
85.19	-0.777565	1.39561	-0.714638	0.624718	1.92851	0.93136	-0.169916	0.166649	-0.13643	0.142599	-0.321056	0	0	0.0130752	-0.330953	-0.178974	0.412395	-0.27185	0	0	-0.415758	-0.112386	0.235015	0.0661652	-0.363684	0.192139	0.826367	1.38457	0	0	0.374293	-0.685039	1.42174	0.57424	1.5708	0	0
